<mxfile host="app.diagrams.net" modified="2023-04-14T15:46:34.703Z" agent="5.0 (X11; Ubuntu)" etag="owpD8DgI4PFcoBVyh4Xc" version="20.8.11" type="github">
  <diagram name="Page-1" id="7sftsaREEKXduiQP2Yfs">
    <mxGraphModel dx="2442" dy="981" grid="0" gridSize="10" guides="1" tooltips="1" connect="1" arrows="1" fold="1" page="0" pageScale="1" pageWidth="850" pageHeight="1100" math="0" shadow="0">
      <root>
        <mxCell id="0" />
        <mxCell id="1" parent="0" />
        <mxCell id="LSiRQm851fG1biD96qPc-81" value="" style="rounded=1;whiteSpace=wrap;html=1;fontSize=10;fillColor=#dae8fc;strokeColor=#6c8ebf;" parent="1" vertex="1">
          <mxGeometry x="206" y="235" width="196" height="39" as="geometry" />
        </mxCell>
        <mxCell id="LSiRQm851fG1biD96qPc-80" value="" style="rounded=1;whiteSpace=wrap;html=1;fontSize=10;fillColor=#dae8fc;strokeColor=#6c8ebf;" parent="1" vertex="1">
          <mxGeometry x="206" y="154" width="196" height="39" as="geometry" />
        </mxCell>
        <mxCell id="LSiRQm851fG1biD96qPc-79" value="" style="rounded=1;whiteSpace=wrap;html=1;fontSize=10;fillColor=#dae8fc;strokeColor=#6c8ebf;" parent="1" vertex="1">
          <mxGeometry x="206" y="65" width="193" height="39" as="geometry" />
        </mxCell>
        <mxCell id="LSiRQm851fG1biD96qPc-78" value="" style="rounded=1;whiteSpace=wrap;html=1;fontSize=10;fillColor=#dae8fc;strokeColor=#6c8ebf;" parent="1" vertex="1">
          <mxGeometry x="206" y="-94" width="190" height="115" as="geometry" />
        </mxCell>
        <mxCell id="LSiRQm851fG1biD96qPc-77" value="" style="rounded=1;whiteSpace=wrap;html=1;fontSize=10;fillColor=#dae8fc;strokeColor=#6c8ebf;" parent="1" vertex="1">
          <mxGeometry x="8" y="111" width="194" height="152" as="geometry" />
        </mxCell>
        <mxCell id="LSiRQm851fG1biD96qPc-76" value="" style="rounded=1;whiteSpace=wrap;html=1;fontSize=10;fillColor=#dae8fc;strokeColor=#6c8ebf;" parent="1" vertex="1">
          <mxGeometry x="8" y="-98" width="180" height="162" as="geometry" />
        </mxCell>
        <mxCell id="LSiRQm851fG1biD96qPc-63" value="" style="rounded=1;whiteSpace=wrap;html=1;fontSize=9;fillColor=#dae8fc;strokeColor=#6c8ebf;" parent="1" vertex="1">
          <mxGeometry x="-180.5" y="178" width="176" height="85" as="geometry" />
        </mxCell>
        <mxCell id="LSiRQm851fG1biD96qPc-62" value="" style="rounded=1;whiteSpace=wrap;html=1;fontSize=9;fillColor=#dae8fc;strokeColor=#6c8ebf;" parent="1" vertex="1">
          <mxGeometry x="-187" y="-101" width="189" height="234" as="geometry" />
        </mxCell>
        <mxCell id="LSiRQm851fG1biD96qPc-61" value="" style="rounded=1;whiteSpace=wrap;html=1;fontSize=9;fillColor=#dae8fc;strokeColor=#6c8ebf;" parent="1" vertex="1">
          <mxGeometry x="-407" y="-98" width="199" height="297" as="geometry" />
        </mxCell>
        <mxCell id="LSiRQm851fG1biD96qPc-5" value="&lt;div&gt;FrankenCoin UserPath: External &amp;amp; Public Functions&lt;/div&gt;&lt;div&gt;&amp;nbsp;&lt;br&gt;&lt;/div&gt;&lt;div&gt;- without limiting modifiers (except owner) &lt;br&gt;&lt;/div&gt;&lt;div&gt;-excluding view &amp;amp; pure)&lt;/div&gt;" style="rounded=1;whiteSpace=wrap;html=1;fillColor=#d5e8d4;strokeColor=#82b366;" parent="1" vertex="1">
          <mxGeometry x="-136.5" y="-223" width="295" height="71" as="geometry" />
        </mxCell>
        <mxCell id="LSiRQm851fG1biD96qPc-10" value="openPosition" style="rounded=1;whiteSpace=wrap;html=1;fillColor=#ffe6cc;strokeColor=#d79b00;" parent="1" vertex="1">
          <mxGeometry x="-345" y="-88" width="117" height="21" as="geometry" />
        </mxCell>
        <mxCell id="LSiRQm851fG1biD96qPc-11" value="1" style="ellipse;whiteSpace=wrap;html=1;aspect=fixed;fillColor=#fff2cc;strokeColor=#d6b656;" parent="1" vertex="1">
          <mxGeometry x="-387" y="-92" width="29" height="29" as="geometry" />
        </mxCell>
        <mxCell id="LSiRQm851fG1biD96qPc-12" value="openPosition" style="rounded=1;whiteSpace=wrap;html=1;fillColor=#ffe6cc;strokeColor=#d79b00;" parent="1" vertex="1">
          <mxGeometry x="-345" y="-54" width="117" height="21" as="geometry" />
        </mxCell>
        <mxCell id="LSiRQm851fG1biD96qPc-13" value="2" style="ellipse;whiteSpace=wrap;html=1;aspect=fixed;fillColor=#fff2cc;strokeColor=#d6b656;" parent="1" vertex="1">
          <mxGeometry x="-387" y="-58" width="29" height="29" as="geometry" />
        </mxCell>
        <mxCell id="LSiRQm851fG1biD96qPc-14" value="clonePosition" style="rounded=1;whiteSpace=wrap;html=1;fillColor=#ffe6cc;strokeColor=#d79b00;" parent="1" vertex="1">
          <mxGeometry x="-345" y="-18" width="117" height="21" as="geometry" />
        </mxCell>
        <mxCell id="LSiRQm851fG1biD96qPc-15" value="3" style="ellipse;whiteSpace=wrap;html=1;aspect=fixed;fillColor=#fff2cc;strokeColor=#d6b656;" parent="1" vertex="1">
          <mxGeometry x="-387" y="-22" width="29" height="29" as="geometry" />
        </mxCell>
        <mxCell id="LSiRQm851fG1biD96qPc-16" value="launchChallenge" style="rounded=1;whiteSpace=wrap;html=1;fillColor=#ffe6cc;strokeColor=#d79b00;" parent="1" vertex="1">
          <mxGeometry x="-345" y="16" width="117" height="21" as="geometry" />
        </mxCell>
        <mxCell id="LSiRQm851fG1biD96qPc-17" value="4" style="ellipse;whiteSpace=wrap;html=1;aspect=fixed;fillColor=#fff2cc;strokeColor=#d6b656;" parent="1" vertex="1">
          <mxGeometry x="-387" y="12" width="29" height="29" as="geometry" />
        </mxCell>
        <mxCell id="LSiRQm851fG1biD96qPc-18" value="splitChallenge" style="rounded=1;whiteSpace=wrap;html=1;fillColor=#ffe6cc;strokeColor=#d79b00;" parent="1" vertex="1">
          <mxGeometry x="-345" y="53" width="117" height="21" as="geometry" />
        </mxCell>
        <mxCell id="LSiRQm851fG1biD96qPc-19" value="5" style="ellipse;whiteSpace=wrap;html=1;aspect=fixed;fillColor=#fff2cc;strokeColor=#d6b656;" parent="1" vertex="1">
          <mxGeometry x="-387" y="49" width="29" height="29" as="geometry" />
        </mxCell>
        <mxCell id="LSiRQm851fG1biD96qPc-20" value="bid" style="rounded=1;whiteSpace=wrap;html=1;fillColor=#ffe6cc;strokeColor=#d79b00;" parent="1" vertex="1">
          <mxGeometry x="-345" y="97" width="117" height="21" as="geometry" />
        </mxCell>
        <mxCell id="LSiRQm851fG1biD96qPc-21" value="6" style="ellipse;whiteSpace=wrap;html=1;aspect=fixed;fillColor=#fff2cc;strokeColor=#d6b656;" parent="1" vertex="1">
          <mxGeometry x="-387" y="93" width="29" height="29" as="geometry" />
        </mxCell>
        <mxCell id="LSiRQm851fG1biD96qPc-22" value="end" style="rounded=1;whiteSpace=wrap;html=1;fillColor=#ffe6cc;strokeColor=#d79b00;" parent="1" vertex="1">
          <mxGeometry x="-345" y="131" width="117" height="21" as="geometry" />
        </mxCell>
        <mxCell id="LSiRQm851fG1biD96qPc-23" value="7" style="ellipse;whiteSpace=wrap;html=1;aspect=fixed;fillColor=#fff2cc;strokeColor=#d6b656;" parent="1" vertex="1">
          <mxGeometry x="-387" y="127" width="29" height="29" as="geometry" />
        </mxCell>
        <mxCell id="LSiRQm851fG1biD96qPc-24" value="&lt;div&gt;&lt;font style=&quot;font-size: 9px;&quot;&gt;returnPostponedCollateral&lt;/font&gt;&lt;/div&gt;" style="rounded=1;whiteSpace=wrap;html=1;fillColor=#ffe6cc;strokeColor=#d79b00;" parent="1" vertex="1">
          <mxGeometry x="-345" y="167" width="117" height="21" as="geometry" />
        </mxCell>
        <mxCell id="LSiRQm851fG1biD96qPc-25" value="8" style="ellipse;whiteSpace=wrap;html=1;aspect=fixed;fillColor=#fff2cc;strokeColor=#d6b656;" parent="1" vertex="1">
          <mxGeometry x="-387" y="163" width="29" height="29" as="geometry" />
        </mxCell>
        <mxCell id="LSiRQm851fG1biD96qPc-26" value="withdraw" style="rounded=1;whiteSpace=wrap;html=1;fillColor=#ffe6cc;strokeColor=#d79b00;" parent="1" vertex="1">
          <mxGeometry x="-134" y="-82" width="117" height="21" as="geometry" />
        </mxCell>
        <mxCell id="LSiRQm851fG1biD96qPc-27" value="9" style="ellipse;whiteSpace=wrap;html=1;aspect=fixed;fillColor=#fff2cc;strokeColor=#d6b656;" parent="1" vertex="1">
          <mxGeometry x="-176" y="-86" width="29" height="29" as="geometry" />
        </mxCell>
        <mxCell id="LSiRQm851fG1biD96qPc-28" value="deny" style="rounded=1;whiteSpace=wrap;html=1;fillColor=#ffe6cc;strokeColor=#d79b00;" parent="1" vertex="1">
          <mxGeometry x="-134" y="-45" width="117" height="21" as="geometry" />
        </mxCell>
        <mxCell id="LSiRQm851fG1biD96qPc-29" value="10" style="ellipse;whiteSpace=wrap;html=1;aspect=fixed;fillColor=#fff2cc;strokeColor=#d6b656;" parent="1" vertex="1">
          <mxGeometry x="-176" y="-49" width="29" height="29" as="geometry" />
        </mxCell>
        <mxCell id="LSiRQm851fG1biD96qPc-30" value="withdrawCollateral" style="rounded=1;whiteSpace=wrap;html=1;fillColor=#ffe6cc;strokeColor=#d79b00;" parent="1" vertex="1">
          <mxGeometry x="-134" y="-7" width="117" height="21" as="geometry" />
        </mxCell>
        <mxCell id="LSiRQm851fG1biD96qPc-31" value="11" style="ellipse;whiteSpace=wrap;html=1;aspect=fixed;fillColor=#fff2cc;strokeColor=#d6b656;" parent="1" vertex="1">
          <mxGeometry x="-176" y="-11" width="29" height="29" as="geometry" />
        </mxCell>
        <mxCell id="LSiRQm851fG1biD96qPc-32" value="adjust" style="rounded=1;whiteSpace=wrap;html=1;fillColor=#ffe6cc;strokeColor=#d79b00;" parent="1" vertex="1">
          <mxGeometry x="-134" y="27" width="117" height="21" as="geometry" />
        </mxCell>
        <mxCell id="LSiRQm851fG1biD96qPc-33" value="12" style="ellipse;whiteSpace=wrap;html=1;aspect=fixed;fillColor=#fff2cc;strokeColor=#d6b656;" parent="1" vertex="1">
          <mxGeometry x="-176" y="23" width="29" height="29" as="geometry" />
        </mxCell>
        <mxCell id="LSiRQm851fG1biD96qPc-34" value="mint" style="rounded=1;whiteSpace=wrap;html=1;fillColor=#ffe6cc;strokeColor=#d79b00;" parent="1" vertex="1">
          <mxGeometry x="-134" y="63" width="117" height="21" as="geometry" />
        </mxCell>
        <mxCell id="LSiRQm851fG1biD96qPc-35" value="13" style="ellipse;whiteSpace=wrap;html=1;aspect=fixed;fillColor=#fff2cc;strokeColor=#d6b656;" parent="1" vertex="1">
          <mxGeometry x="-176" y="59" width="29" height="29" as="geometry" />
        </mxCell>
        <mxCell id="LSiRQm851fG1biD96qPc-36" value="repay" style="rounded=1;whiteSpace=wrap;html=1;fillColor=#ffe6cc;strokeColor=#d79b00;" parent="1" vertex="1">
          <mxGeometry x="-134" y="97" width="117" height="21" as="geometry" />
        </mxCell>
        <mxCell id="LSiRQm851fG1biD96qPc-37" value="14" style="ellipse;whiteSpace=wrap;html=1;aspect=fixed;fillColor=#fff2cc;strokeColor=#d6b656;" parent="1" vertex="1">
          <mxGeometry x="-176" y="93" width="29" height="29" as="geometry" />
        </mxCell>
        <mxCell id="LSiRQm851fG1biD96qPc-38" value="createNewPosition" style="rounded=1;whiteSpace=wrap;html=1;fillColor=#ffe6cc;strokeColor=#d79b00;" parent="1" vertex="1">
          <mxGeometry x="-129.5" y="199" width="117" height="21" as="geometry" />
        </mxCell>
        <mxCell id="LSiRQm851fG1biD96qPc-39" value="15" style="ellipse;whiteSpace=wrap;html=1;aspect=fixed;fillColor=#fff2cc;strokeColor=#d6b656;" parent="1" vertex="1">
          <mxGeometry x="-171.5" y="195" width="29" height="29" as="geometry" />
        </mxCell>
        <mxCell id="LSiRQm851fG1biD96qPc-40" value="clonePosition" style="rounded=1;whiteSpace=wrap;html=1;fillColor=#ffe6cc;strokeColor=#d79b00;" parent="1" vertex="1">
          <mxGeometry x="-129.5" y="235" width="117" height="21" as="geometry" />
        </mxCell>
        <mxCell id="LSiRQm851fG1biD96qPc-41" value="16" style="ellipse;whiteSpace=wrap;html=1;aspect=fixed;fillColor=#fff2cc;strokeColor=#d6b656;" parent="1" vertex="1">
          <mxGeometry x="-171.5" y="231" width="29" height="29" as="geometry" />
        </mxCell>
        <mxCell id="LSiRQm851fG1biD96qPc-42" value="suggestMinter" style="rounded=1;whiteSpace=wrap;html=1;fillColor=#ffe6cc;strokeColor=#d79b00;" parent="1" vertex="1">
          <mxGeometry x="55" y="-76" width="117" height="21" as="geometry" />
        </mxCell>
        <mxCell id="LSiRQm851fG1biD96qPc-43" value="17" style="ellipse;whiteSpace=wrap;html=1;aspect=fixed;fillColor=#fff2cc;strokeColor=#d6b656;" parent="1" vertex="1">
          <mxGeometry x="13" y="-80" width="29" height="29" as="geometry" />
        </mxCell>
        <mxCell id="LSiRQm851fG1biD96qPc-44" value="denyMinter" style="rounded=1;whiteSpace=wrap;html=1;fillColor=#ffe6cc;strokeColor=#d79b00;" parent="1" vertex="1">
          <mxGeometry x="55" y="-42" width="117" height="21" as="geometry" />
        </mxCell>
        <mxCell id="LSiRQm851fG1biD96qPc-45" value="18" style="ellipse;whiteSpace=wrap;html=1;aspect=fixed;fillColor=#fff2cc;strokeColor=#d6b656;" parent="1" vertex="1">
          <mxGeometry x="13" y="-46" width="29" height="29" as="geometry" />
        </mxCell>
        <mxCell id="LSiRQm851fG1biD96qPc-46" value="registerPosition" style="rounded=1;whiteSpace=wrap;html=1;fillColor=#ffe6cc;strokeColor=#d79b00;" parent="1" vertex="1">
          <mxGeometry x="55" y="-6" width="117" height="21" as="geometry" />
        </mxCell>
        <mxCell id="LSiRQm851fG1biD96qPc-47" value="19" style="ellipse;whiteSpace=wrap;html=1;aspect=fixed;fillColor=#fff2cc;strokeColor=#d6b656;" parent="1" vertex="1">
          <mxGeometry x="13" y="-10" width="29" height="29" as="geometry" />
        </mxCell>
        <mxCell id="LSiRQm851fG1biD96qPc-48" value="redeem" style="rounded=1;whiteSpace=wrap;html=1;fillColor=#ffe6cc;strokeColor=#d79b00;" parent="1" vertex="1">
          <mxGeometry x="60" y="126" width="117" height="21" as="geometry" />
        </mxCell>
        <mxCell id="LSiRQm851fG1biD96qPc-49" value="20" style="ellipse;whiteSpace=wrap;html=1;aspect=fixed;fillColor=#fff2cc;strokeColor=#d6b656;" parent="1" vertex="1">
          <mxGeometry x="18" y="122" width="29" height="29" as="geometry" />
        </mxCell>
        <mxCell id="LSiRQm851fG1biD96qPc-50" value="delegateVoteTo" style="rounded=1;whiteSpace=wrap;html=1;fillColor=#ffe6cc;strokeColor=#d79b00;" parent="1" vertex="1">
          <mxGeometry x="60" y="163" width="117" height="21" as="geometry" />
        </mxCell>
        <mxCell id="LSiRQm851fG1biD96qPc-51" value="21" style="ellipse;whiteSpace=wrap;html=1;aspect=fixed;fillColor=#fff2cc;strokeColor=#d6b656;" parent="1" vertex="1">
          <mxGeometry x="18" y="159" width="29" height="29" as="geometry" />
        </mxCell>
        <mxCell id="LSiRQm851fG1biD96qPc-52" value="onTokenTransfer" style="rounded=1;whiteSpace=wrap;html=1;fillColor=#ffe6cc;strokeColor=#d79b00;" parent="1" vertex="1">
          <mxGeometry x="60" y="201" width="117" height="21" as="geometry" />
        </mxCell>
        <mxCell id="LSiRQm851fG1biD96qPc-53" value="22" style="ellipse;whiteSpace=wrap;html=1;aspect=fixed;fillColor=#fff2cc;strokeColor=#d6b656;" parent="1" vertex="1">
          <mxGeometry x="18" y="197" width="29" height="29" as="geometry" />
        </mxCell>
        <mxCell id="LSiRQm851fG1biD96qPc-54" value="restructureCapTable" style="rounded=1;whiteSpace=wrap;html=1;fillColor=#ffe6cc;strokeColor=#d79b00;" parent="1" vertex="1">
          <mxGeometry x="60" y="235" width="117" height="21" as="geometry" />
        </mxCell>
        <mxCell id="LSiRQm851fG1biD96qPc-55" value="23" style="ellipse;whiteSpace=wrap;html=1;aspect=fixed;fillColor=#fff2cc;strokeColor=#d6b656;" parent="1" vertex="1">
          <mxGeometry x="18" y="231" width="29" height="29" as="geometry" />
        </mxCell>
        <mxCell id="LSiRQm851fG1biD96qPc-56" value="mint" style="rounded=1;whiteSpace=wrap;html=1;fillColor=#ffe6cc;strokeColor=#d79b00;" parent="1" vertex="1">
          <mxGeometry x="263" y="-83" width="117" height="21" as="geometry" />
        </mxCell>
        <mxCell id="LSiRQm851fG1biD96qPc-57" value="24" style="ellipse;whiteSpace=wrap;html=1;aspect=fixed;fillColor=#fff2cc;strokeColor=#d6b656;" parent="1" vertex="1">
          <mxGeometry x="221" y="-87" width="29" height="29" as="geometry" />
        </mxCell>
        <mxCell id="LSiRQm851fG1biD96qPc-58" value="burn" style="rounded=1;whiteSpace=wrap;html=1;fillColor=#ffe6cc;strokeColor=#d79b00;" parent="1" vertex="1">
          <mxGeometry x="263" y="-49" width="117" height="21" as="geometry" />
        </mxCell>
        <mxCell id="LSiRQm851fG1biD96qPc-59" value="25" style="ellipse;whiteSpace=wrap;html=1;aspect=fixed;fillColor=#fff2cc;strokeColor=#d6b656;" parent="1" vertex="1">
          <mxGeometry x="221" y="-53" width="29" height="29" as="geometry" />
        </mxCell>
        <mxCell id="LSiRQm851fG1biD96qPc-64" value="onTokenTransfer" style="rounded=1;whiteSpace=wrap;html=1;fillColor=#ffe6cc;strokeColor=#d79b00;" parent="1" vertex="1">
          <mxGeometry x="263" y="-11" width="117" height="21" as="geometry" />
        </mxCell>
        <mxCell id="LSiRQm851fG1biD96qPc-65" value="26" style="ellipse;whiteSpace=wrap;html=1;aspect=fixed;fillColor=#fff2cc;strokeColor=#d6b656;" parent="1" vertex="1">
          <mxGeometry x="221" y="-15" width="29" height="29" as="geometry" />
        </mxCell>
        <mxCell id="LSiRQm851fG1biD96qPc-66" value="transferAndCall" style="rounded=1;whiteSpace=wrap;html=1;fillColor=#ffe6cc;strokeColor=#d79b00;" parent="1" vertex="1">
          <mxGeometry x="262" y="73" width="117" height="21" as="geometry" />
        </mxCell>
        <mxCell id="LSiRQm851fG1biD96qPc-67" value="27" style="ellipse;whiteSpace=wrap;html=1;aspect=fixed;fillColor=#fff2cc;strokeColor=#d6b656;" parent="1" vertex="1">
          <mxGeometry x="220" y="69" width="29" height="29" as="geometry" />
        </mxCell>
        <mxCell id="LSiRQm851fG1biD96qPc-68" value="permit" style="rounded=1;whiteSpace=wrap;html=1;fillColor=#ffe6cc;strokeColor=#d79b00;" parent="1" vertex="1">
          <mxGeometry x="260" y="163" width="117" height="21" as="geometry" />
        </mxCell>
        <mxCell id="LSiRQm851fG1biD96qPc-69" value="28" style="ellipse;whiteSpace=wrap;html=1;aspect=fixed;fillColor=#fff2cc;strokeColor=#d6b656;" parent="1" vertex="1">
          <mxGeometry x="218" y="159" width="29" height="29" as="geometry" />
        </mxCell>
        <mxCell id="LSiRQm851fG1biD96qPc-70" value="transferOwnership" style="rounded=1;whiteSpace=wrap;html=1;fillColor=#ffe6cc;strokeColor=#d79b00;" parent="1" vertex="1">
          <mxGeometry x="257" y="244" width="117" height="21" as="geometry" />
        </mxCell>
        <mxCell id="LSiRQm851fG1biD96qPc-71" value="29" style="ellipse;whiteSpace=wrap;html=1;aspect=fixed;fillColor=#fff2cc;strokeColor=#d6b656;" parent="1" vertex="1">
          <mxGeometry x="215" y="240" width="29" height="29" as="geometry" />
        </mxCell>
        <mxCell id="LSiRQm851fG1biD96qPc-74" value="burn" style="rounded=1;whiteSpace=wrap;html=1;fillColor=#ffe6cc;strokeColor=#d79b00;" parent="1" vertex="1">
          <mxGeometry x="55" y="31" width="117" height="21" as="geometry" />
        </mxCell>
        <mxCell id="LSiRQm851fG1biD96qPc-75" value="19" style="ellipse;whiteSpace=wrap;html=1;aspect=fixed;fillColor=#fff2cc;strokeColor=#d6b656;" parent="1" vertex="1">
          <mxGeometry x="13" y="27" width="29" height="29" as="geometry" />
        </mxCell>
        <mxCell id="LSiRQm851fG1biD96qPc-82" value="&lt;font style=&quot;font-size: 12px;&quot;&gt;MintingHub.sol&lt;/font&gt;" style="rounded=1;whiteSpace=wrap;html=1;fontSize=20;fillColor=#dae8fc;strokeColor=#6c8ebf;" parent="1" vertex="1">
          <mxGeometry x="-362" y="-123" width="107" height="25" as="geometry" />
        </mxCell>
        <mxCell id="LSiRQm851fG1biD96qPc-85" value="&lt;div&gt;&lt;font style=&quot;font-size: 12px;&quot;&gt;Position.sol&lt;/font&gt;&lt;/div&gt;" style="rounded=1;whiteSpace=wrap;html=1;fontSize=20;fillColor=#dae8fc;strokeColor=#6c8ebf;" parent="1" vertex="1">
          <mxGeometry x="-146" y="-126" width="107" height="25" as="geometry" />
        </mxCell>
        <mxCell id="LSiRQm851fG1biD96qPc-87" value="&lt;div&gt;&lt;font style=&quot;font-size: 12px;&quot;&gt;PositionFactory.sol&lt;/font&gt;&lt;/div&gt;" style="rounded=1;whiteSpace=wrap;html=1;fontSize=20;fillColor=#dae8fc;strokeColor=#6c8ebf;" parent="1" vertex="1">
          <mxGeometry x="-142.5" y="153" width="107" height="25" as="geometry" />
        </mxCell>
        <mxCell id="LSiRQm851fG1biD96qPc-88" value="&lt;div&gt;&lt;font style=&quot;font-size: 12px;&quot;&gt;FrankenCoin.sol&lt;/font&gt;&lt;/div&gt;" style="rounded=1;whiteSpace=wrap;html=1;fontSize=20;fillColor=#dae8fc;strokeColor=#6c8ebf;" parent="1" vertex="1">
          <mxGeometry x="44.5" y="-123" width="107" height="25" as="geometry" />
        </mxCell>
        <mxCell id="LSiRQm851fG1biD96qPc-89" value="&lt;font style=&quot;font-size: 12px;&quot;&gt;Equity.sol&lt;/font&gt;" style="rounded=1;whiteSpace=wrap;html=1;fontSize=20;fillColor=#dae8fc;strokeColor=#6c8ebf;" parent="1" vertex="1">
          <mxGeometry x="51.5" y="86" width="107" height="25" as="geometry" />
        </mxCell>
        <mxCell id="LSiRQm851fG1biD96qPc-90" value="&lt;font style=&quot;font-size: 10px;&quot;&gt;StableCoinBridge.sol&lt;/font&gt;" style="rounded=1;whiteSpace=wrap;html=1;fontSize=20;fillColor=#dae8fc;strokeColor=#6c8ebf;" parent="1" vertex="1">
          <mxGeometry x="247.5" y="-119" width="107" height="25" as="geometry" />
        </mxCell>
        <mxCell id="LSiRQm851fG1biD96qPc-92" value="&lt;font style=&quot;font-size: 12px;&quot;&gt;ERC20.sol&lt;/font&gt;" style="rounded=1;whiteSpace=wrap;html=1;fontSize=20;fillColor=#dae8fc;strokeColor=#6c8ebf;" parent="1" vertex="1">
          <mxGeometry x="250.5" y="40" width="107" height="25" as="geometry" />
        </mxCell>
        <mxCell id="LSiRQm851fG1biD96qPc-93" value="&lt;font style=&quot;font-size: 10px;&quot;&gt;ERC20PermitLight.sol&lt;/font&gt;" style="rounded=1;whiteSpace=wrap;html=1;fontSize=20;fillColor=#dae8fc;strokeColor=#6c8ebf;" parent="1" vertex="1">
          <mxGeometry x="250" y="133" width="121" height="21" as="geometry" />
        </mxCell>
        <mxCell id="LSiRQm851fG1biD96qPc-94" value="&lt;font style=&quot;font-size: 12px;&quot;&gt;Ownable.sol&lt;/font&gt;" style="rounded=1;whiteSpace=wrap;html=1;fontSize=20;fillColor=#dae8fc;strokeColor=#6c8ebf;" parent="1" vertex="1">
          <mxGeometry x="257" y="210" width="107" height="25" as="geometry" />
        </mxCell>
      </root>
    </mxGraphModel>
  </diagram>
</mxfile>
